<svg xmlns="http://www.w3.org/2000/svg" version="1.1" xmlns:xlink="http://www.w3.org/1999/xlink" width="512" height="512" x="0" y="0" viewBox="0 0 512 512" style="enable-background:new 0 0 512 512" xml:space="preserve"><g><path d="M333.474 386.801c-1.624-1.476-17.47-14.408-73.032-14.408s-71.409 12.933-73.033 14.408a7.497 7.497 0 0 0-2.142 7.706l11.673 38.936a7.5 7.5 0 0 0 7.184 5.346H316.76a7.499 7.499 0 0 0 7.184-5.347l11.672-38.936a7.495 7.495 0 0 0-2.142-7.705zm-22.296 36.987H209.705l-8.369-27.914c6.977-3.123 24.06-8.483 59.105-8.483s52.128 5.36 59.105 8.483l-8.368 27.914z" opacity="1" data-original="#000000"/><path d="m472.286 327.942-84.547-46.866v-57.099l65.156 36.116a20.018 20.018 0 0 0 9.685 2.509 20.02 20.02 0 0 0 17.503-10.304 19.865 19.865 0 0 0 1.732-15.208 19.856 19.856 0 0 0-9.529-11.978l-81.33-45.081 9.859-38.616a7.484 7.484 0 0 0 .233-1.855V73.005l-.001-.127c-.013-.784-.518-19.412-17.218-37.659C348.827-3.024 285.197.059 246.02.059c-50.954 0-87.616 11.829-108.969 35.159-16.701 18.247-17.205 36.875-17.218 37.659l-.001.127v66.553c0 .626.078 1.249.233 1.855l8.759 34.303-89.111 49.393a19.865 19.865 0 0 0-9.529 11.979 19.866 19.866 0 0 0 1.732 15.207 20.017 20.017 0 0 0 17.503 10.305c3.375 0 6.725-.867 9.684-2.509l74.041-41.04v57.099L39.713 327.94a19.865 19.865 0 0 0-9.529 11.979 19.866 19.866 0 0 0 1.732 15.207 20.017 20.017 0 0 0 17.503 10.305c3.375 0 6.725-.867 9.684-2.509l74.04-41.042v45.325l-13.119 56.849a7.538 7.538 0 0 0-.192 1.687c0 43.769 15.795 64.887 29.046 74.896 14.868 11.23 29.952 11.36 30.587 11.36h161.949c.546 0 13.518-.105 27.204-8.995 12.293-7.986 27.744-24.869 31.535-59.946a7.5 7.5 0 0 0-6.651-8.262c-4.119-.453-7.817 2.531-8.262 6.65-5.875 54.358-42.335 55.529-43.829 55.553h-161.89c-1.817-.026-44.344-1.447-44.687-70.412l13.117-56.84a7.538 7.538 0 0 0 .192-1.687V191.689c0-.626-.078-1.249-.233-1.855l-3.121-12.224-9.956-38.998V73.096c.033-.876.92-16.281 16.56-30.998 2.234 15.422 15.535 27.311 31.566 27.311 17.59 0 31.9-14.312 31.9-31.902V16.865c17.724-2.208 29.953-1.806 60.002-1.806 11.109 0 21.511.618 31.161 1.83v20.618c0 17.591 14.312 31.902 31.903 31.902 16.046 0 29.357-11.913 31.57-27.359a62.37 62.37 0 0 1 2.532 2.504c13.21 13.93 13.985 27.679 14.021 28.549v65.512l-13.078 51.223a7.484 7.484 0 0 0-.233 1.855v176.369c0 .567.064 1.134.192 1.687l9.044 39.193a7.5 7.5 0 0 0 14.617-3.373l-8.853-38.361v-40.401l65.158 36.119a20.03 20.03 0 0 0 9.683 2.508 20.02 20.02 0 0 0 17.503-10.304 19.865 19.865 0 0 0 1.732-15.208 19.85 19.85 0 0 0-9.527-11.98zm-84.547-132.548 77.278 42.837a4.964 4.964 0 0 1 2.382 2.993 4.972 4.972 0 0 1-.433 3.803 5.012 5.012 0 0 1-4.385 2.577 4.92 4.92 0 0 1-2.413-.628l-72.429-40.147v-11.435zm-254.595 6.51-81.313 45.071a4.916 4.916 0 0 1-2.412.628 5.013 5.013 0 0 1-4.385-2.578 4.969 4.969 0 0 1-.433-3.802 4.964 4.964 0 0 1 2.383-2.994l85.675-47.489.484 1.896v9.268zm.001 102.831-81.314 45.073a4.916 4.916 0 0 1-2.412.628 5.013 5.013 0 0 1-4.385-2.578 4.969 4.969 0 0 1-.433-3.802 4.964 4.964 0 0 1 2.383-2.994l86.16-47.76v11.433zm66.717-267.228c-.001 9.32-7.584 16.903-16.902 16.903-9.319 0-16.902-7.583-16.902-16.903v-6.045c10.457-5.887 22.061-9.633 33.804-12.114v18.159zm154.965 0c0 9.32-7.582 16.903-16.9 16.903-9.321 0-16.904-7.583-16.904-16.903V19.38c12.121 2.551 22.759 6.215 31.77 10.95.177.094.354.187.53.282.508.271 1.007.549 1.504.827v6.068zm112.139 310.351a5.012 5.012 0 0 1-4.385 2.577 4.933 4.933 0 0 1-2.413-.628l-72.429-40.149v-11.433l77.277 42.837.001.001a4.963 4.963 0 0 1 2.381 2.993 4.973 4.973 0 0 1-.432 3.802z" opacity="1" data-original="#000000"/><path d="M358 127.516c-2.129-2.288-22.959-22.356-97.558-22.356s-95.428 20.068-97.558 22.356a7.498 7.498 0 0 0-1.78 6.951l15.807 62.397a7.501 7.501 0 0 0 7.271 5.658h25.867a7.5 7.5 0 0 0 7.5-7.5 7.5 7.5 0 0 0-7.5-7.5h-20.03l-13.153-51.925c7.625-4.771 30.604-15.438 83.577-15.438s75.953 10.668 83.578 15.439l-13.153 51.924h-85.821a7.5 7.5 0 0 0-7.5 7.5 7.5 7.5 0 0 0 7.5 7.5h91.658a7.501 7.501 0 0 0 7.268-5.658l15.807-62.397a7.5 7.5 0 0 0-1.78-6.951z" opacity="1" data-original="#000000"/></g></svg>